<?xml version="1.0" encoding="utf-8"?>
<!-- Generator: Adobe Illustrator 23.1.0, SVG Export Plug-In . SVG Version: 6.00 Build 0)  -->
<svg version="1.1" id="Capa_1" xmlns="http://www.w3.org/2000/svg" xmlns:xlink="http://www.w3.org/1999/xlink" x="0px" y="0px"
	 viewBox="0 0 1200 1200" enable-background="new 0 0 1200 1200" xml:space="preserve">
<path fill="#000000" d="M608.391,354.614c-13.157-10.45-24.819-20.488-35.363-30.556c-14.683,13.492-36.05,17.596-56.537,17.596
	c-30.253,0-58.565-8.897-60.534-9.529c-7.583-2.431-3.75-14.054,3.747-11.666c0.989,0.315,73.269,22.902,104.576-5.033
	c-14.165-14.436-26.236-29.213-37.264-45.556c-0.376-0.14-0.755-0.27-1.109-0.49c-16.129-10.009-25.74-9.56-37.899-8.987
	c-10.197,0.476-21.758,1.021-38.108-4.78c-38.41-13.628-39.344-39.836-39.365-40.944c-0.147-7.917,11.841-8.167,12.249-0.296
	c0.052,0.996,1.431,19.127,31.213,29.694c14.086,4.995,23.924,4.536,33.433,4.088c8.399-0.393,16.998-0.776,27.545,2.58
	c-5.836-9.954-11.472-20.535-17.076-32.024c-3.931-8.059-7.423-15.494-10.77-22.671c-17.184,1.819-33.476-10.959-44.172-22.993
	c-21.448-24.129-49.538-24.409-49.819-24.409c-7.951,0-7.712-12.255,0.003-12.252c1.42,0.001,33.931,0.346,58.975,28.521
	c12.943,14.56,23.409,18.215,29.334,18.951c-17.971-38.397-29.621-60.053-60.907-70.842c-7.562-2.607-3.391-14.13,4.001-11.58
	c38.182,13.169,50.727,40.114,71.512,84.755c1.985,4.264,4.005,8.6,6.116,13.077c3.462-4.85,7.738-14.233,0.489-25.509
	c-14.14-22.002-12.788-49.538-12.725-50.7c0.441-7.901,12.622-7.253,12.234,0.681c-0.017,0.345-1.128,24.838,10.798,43.393
	c12.454,19.372,2.365,37.13-5.028,44.194c6.555,13.515,26.462,50.642,43.021,70.695c1.475-8.727,2.749-23.511-0.645-41.329
	c-6.081-31.937-0.129-53.389,0.129-54.286c2.19-7.654,13.9-4.274,11.785,3.352c-0.091,0.328-5.358,19.866,0.123,48.643
	c5.682,29.837-0.376,51.774-1.508,55.469c9.074,10.303,19.1,20.272,30.466,30.413c23.47-35.406-0.812-106.983-1.072-107.731
	c-2.586-7.491,8.988-11.505,11.583-3.995c1.172,3.39,27.004,79.668-1.184,119.83c4.894,4.15,9.968,8.339,15.373,12.631
	C622.383,350.083,614.399,359.386,608.391,354.614z M1008.925,799.424c0,130.679-71.278,246.368-181.591,294.732
	c-36.625,16.057-63.539,55.844-106.696,55.845c-43.19,0-71.453-40.151-108.092-56.459
	c-109.467-48.726-180.198-164.174-180.198-294.117c0-161.087,109.727-294.505,251.27-314.554
	c-0.517-18.198,0.608-42.203,1.351-55.253c-31.566-2.963-54.967-19.569-64.563-27.551c-23.738,9.775-116.706,44.281-179.342,13.549
	c-59.041-28.958-61.717-108.295-70.093-165.221c-10.96-74.486-15.498-105.316-75.756-105.316
	c-100.813,0-104.044-49.686-104.131-51.801c-0.333-7.955,9.011-12.345,15.103-7.41c1.202,0.974,30.665,23.945,84.73-4.678
	c46.947-24.854,127.477-41.609,184.221-23.717c28.488,8.984,49.062,25.521,61.153,49.152c15.608,30.506,42.027,41.985,69.995,54.138
	c38.174,16.586,77.649,33.738,84.801,99.538c5.546,51.032-16.482,91.355-26.894,107.185c16.195,12.903,28.091,12.041,33.253,10.679
	c16.927-46.591,83.147-87.969,121.898-108.837c31.689-17.06,44.402-41.488,44.527-41.732c2.061-4.053,6.79-6.017,11.109-4.578
	l32.242,10.749c5.14,1.715,7.686,7.243,5.561,12.289c-14.284,33.926-46.405,55.243-80.417,77.812
	c-20.822,13.819-42.356,28.109-61.464,46.211c-40.746,38.603-37.194,97.315-35.467,112.597
	C887.549,491.179,1008.925,630,1008.925,799.424z M701.951,482.947c4.948-0.35,9.93-0.561,14.943-0.632
	c-2.105-21.077-3.772-82.811,41.369-125.578c20.263-19.196,42.469-33.932,63.943-48.184c29.467-19.555,55.347-36.729,69.19-60.692
	l-15.27-5.09c-6.643,9.923-21.633,28.502-48.069,42.737c-23.511,12.66-101.253,57.449-114.411,102.189
	c-0.649,2.212-2.109,4.099-4.089,5.285c-1.143,0.689-28.459,16.443-63.994-17.398c-3.455-3.292-3.817-8.681-0.829-12.405
	c0.332-0.417,34.285-43.817,28.082-100.894c-5.997-55.185-37.444-68.848-73.853-84.668c-28.324-12.307-60.426-26.255-79.034-62.624
	c-9.766-19.089-26.697-32.545-50.318-39.994c-51.994-16.393-126.442-0.678-170.096,22.433c-30.75,16.28-55.427,18.137-73.133,15.39
	c12.177,7.351,33.062,13.878,68.834,13.878c76.133,0,83.216,48.144,93.937,121.021c4.017,27.296,8.57,58.235,17.113,93.836
	c6.685,27.853,20.714,46.68,42.891,57.559c63.106,30.95,168.182-15.693,169.232-16.168c3.485-1.566,7.577-0.82,10.272,1.881
	c0.257,0.253,27.585,26.867,66.058,26.867c5.278,0,9.561,4.529,9.168,9.823C703.855,421.925,701.379,458.172,701.951,482.947z
	 M990.547,799.424c0-164.749-121.082-298.783-269.91-298.783s-269.91,134.034-269.91,298.783
	c0,122.693,66.45,231.551,169.291,277.327c33.293,14.819,61.887,54.869,100.616,54.871c37.638,0.002,66.782-40.033,99.32-54.298
	C923.585,1031.89,990.547,922.807,990.547,799.424z M780.33,1062.729c-2.77-1.306-6.325-0.844-7.952,2.818
	c-7.398,16.643-19.725,20.663-20.388,20.867c-7.443,2.294-4.137,13.936,3.41,11.768c0.742-0.211,18.3-5.45,28.171-27.655
	C785.089,1067.114,783.103,1064.036,780.33,1062.729z M929.457,921.409c-2.925-0.904-6.356,0.017-7.418,3.841
	c-0.105,0.378-10.756,38.125-26.803,52.166c-14.506,12.694-27.721,26.806-41.989,39.773c-22.016,20.017-38.134,22.65-38.579,22.719
	c-7.213,1.12-6.604,12.199,0.791,12.199c0.254,0,0.511-0.015,0.769-0.048c0.799-0.099,19.859-2.71,45.263-25.804
	c14.212-12.921,27.363-26.973,41.817-39.62c18.788-16.441,30.047-56.35,30.533-58.101
	C934.808,925.049,932.385,922.314,929.457,921.409z M810.577,1010.263c-2.936-0.875-6.44,0.152-7.571,3.948
	c-3.982,13.325-23.906,18.248-24.247,18.33c-7.431,1.781-4.3,13.578,2.791,11.93c1.104-0.257,27.153-6.541,33.192-26.749
	C815.88,1013.913,813.512,1011.138,810.577,1010.263z M601.875,564.171c7.138-3.251,2.208-14.483-5.067-11.154
	c-25.937,11.787-37.743,34.938-38.234,35.918c-3.451,6.902,7.59,12.321,10.96,5.479
	C569.633,594.213,579.847,574.185,601.875,564.171z M653.414,549.427c-27.568,6.996-43.281,27.634-43.986,28.572
	c-4.683,6.231,5.076,13.664,9.814,7.339c0.135-0.181,13.728-18.083,37.183-24.035C664.005,559.38,661.194,547.446,653.414,549.427z
	 M534.193,613.042c-19.783,13.232-29.066,34.51-34.875,56.651c-1.472,5.621-2.997,11.434-4.316,13.414
	c-5.124,7.686-18.552,43.88-20.84,64.472c-0.848,7.635,11.306,9.19,12.174,1.355c2.064-18.552,14.953-53.172,18.86-59.03
	c2.459-3.687,4.011-9.608,5.976-17.104c4.953-18.891,12.754-38.03,29.823-49.568C547.52,618.821,540.826,608.605,534.193,613.042z
	 M745.141,837.912c-4.594-0.033-9.189,2.884-9.189,8.848c-0.002,19.404-30.626,19.873-30.63,0.005
	c-0.003-11.775-18.377-11.948-18.378-0.004c-0.003,42.606,67.383,43.6,67.386,0.003C754.33,840.928,749.735,837.945,745.141,837.912
	z M598.115,793.588c-15.834,0-28.67,12.836-28.67,28.67c0,15.834,12.836,28.67,28.67,28.67c15.834,0,28.67-12.836,28.67-28.67
	C626.785,806.424,613.949,793.588,598.115,793.588z M843.157,850.928c15.834,0,28.67-12.836,28.67-28.67
	c0-15.834-12.836-28.67-28.67-28.67s-28.67,12.836-28.67,28.67C814.487,838.092,827.323,850.928,843.157,850.928z"/>
</svg>
