<?xml version="1.0" encoding="utf-8"?>
<!-- Generator: Adobe Illustrator 23.1.0, SVG Export Plug-In . SVG Version: 6.00 Build 0)  -->
<svg version="1.1" id="Capa_1" xmlns="http://www.w3.org/2000/svg" xmlns:xlink="http://www.w3.org/1999/xlink" x="0px" y="0px"
	 viewBox="0 0 1200 1200" enable-background="new 0 0 1200 1200" xml:space="preserve">
<g>
	<path fill="#FFE957" d="M717.818,1139.341c52.929,0,64.691-35.286,95.566-47.048c30.875-11.762,155.728-83.547,179.37-211.716
		c27.935-151.436-44.107-389.493-273.466-389.493c-216.126,0-304.341,242.468-271.996,371.85s105.858,194.073,163.198,219.067
		C667.83,1106.996,675.181,1139.341,717.818,1139.341z"/>
	<radialGradient id="SVGID_1_" cx="587.041" cy="472.7126" r="450.2483" gradientUnits="userSpaceOnUse">
		<stop  offset="0" style="stop-color:#FFF98C"/>
		<stop  offset="1" style="stop-color:#FFF98C;stop-opacity:0"/>
	</radialGradient>
	<path fill="url(#SVGID_1_)" d="M717.818,1139.341c52.929,0,64.691-35.286,95.566-47.048
		c30.875-11.762,155.728-83.547,179.37-211.716c27.935-151.436-44.107-389.493-273.466-389.493
		c-216.126,0-304.341,242.468-271.996,371.85s105.858,194.073,163.198,219.067C667.83,1106.996,675.181,1139.341,717.818,1139.341z"
		/>
	<radialGradient id="SVGID_2_" cx="796.6212" cy="1132.239" r="574.3405" gradientUnits="userSpaceOnUse">
		<stop  offset="0" style="stop-color:#FFCB5B"/>
		<stop  offset="1" style="stop-color:#FFCB5B;stop-opacity:0"/>
	</radialGradient>
	<path fill="url(#SVGID_2_)" d="M948.99,622.849c27.793,65.961,33.98,141.33,22.842,201.707
		c-21.707,117.672-136.334,183.579-164.68,194.377c-28.347,10.799-39.145,43.195-87.74,43.195
		c-39.145,0-45.895-29.696-98.538-52.644c-52.644-22.947-120.136-82.34-149.832-201.127
		c-13.419-53.673-4.232-128.542,28.169-194.496c-52.193,79.323-69.133,180.213-51.919,249.073
		c32.346,129.382,105.858,194.073,163.198,219.067c57.34,24.994,64.69,57.34,107.328,57.34c52.929,0,64.69-35.286,95.566-47.048
		c30.875-11.762,155.728-83.547,179.37-211.716C1007.093,802.852,995.081,702.314,948.99,622.849z"/>
	<path fill="#8BCF88" d="M692.824,493.902h35.286c0,0-11.762-51.459,13.232-97.036s77.923-76.453,101.447-88.215
		c23.524-11.762,52.929-36.756,60.28-64.691l-30.875-8.821c0,0-17.643,32.345-39.697,41.167
		c-22.054,8.822-111.739,49.988-130.852,110.269c0,0-32.345,2.94-47.048-14.702c0,0,35.286-54.399,27.935-105.858
		c-7.351-51.459-33.816-82.334-76.453-95.566s-69.102-39.697-83.804-67.631c-14.702-27.935-83.464-53.176-139.674-42.637
		c-70.572,13.232-132.322,57.34-166.138,44.107c0,0,2.94,30.875,54.399,32.345s92.626-2.941,102.917,60.28
		c8.389,51.531,4.411,173.489,69.102,210.245s183.781-17.643,183.781-17.643s26.887,35.414,69.102,24.994
		C695.764,414.509,689.883,470.378,692.824,493.902z"/>
	<radialGradient id="SVGID_3_" cx="846.3521" cy="544.9409" r="674.7531" gradientUnits="userSpaceOnUse">
		<stop  offset="0" style="stop-color:#67A376"/>
		<stop  offset="1" style="stop-color:#67A376;stop-opacity:0"/>
	</radialGradient>
	<path fill="url(#SVGID_3_)" d="M692.824,493.902h35.286c0,0-11.762-51.459,13.232-97.036s77.923-76.453,101.447-88.215
		c23.524-11.762,52.929-36.756,60.28-64.691l-30.875-8.821c0,0-17.643,32.345-39.697,41.167
		c-22.054,8.822-111.739,49.988-130.852,110.269c0,0-32.345,2.94-47.048-14.702c0,0,35.286-54.399,27.935-105.858
		c-7.351-51.459-33.816-82.334-76.453-95.566s-69.102-39.697-83.804-67.631c-14.702-27.935-83.464-53.176-139.674-42.637
		c-70.572,13.232-132.322,57.34-166.138,44.107c0,0,2.94,30.875,54.399,32.345s92.626-2.941,102.917,60.28
		c8.389,51.531,4.411,173.489,69.102,210.245s183.781-17.643,183.781-17.643s26.887,35.414,69.102,24.994
		C695.764,414.509,689.883,470.378,692.824,493.902z"/>
	<radialGradient id="SVGID_4_" cx="223.0815" cy="61.2441" r="426.204" gradientUnits="userSpaceOnUse">
		<stop  offset="0" style="stop-color:#F2FC95"/>
		<stop  offset="1" style="stop-color:#F2FC95;stop-opacity:0"/>
	</radialGradient>
	<path fill="url(#SVGID_4_)" d="M440.545,270.303c8.223-59.203,36.18-120.051,0-174.321c-9.563-15.3-22.467-27.257-36.116-38.147
		c-7.387,0.254-14.708,1.01-21.829,2.345c-70.572,13.232-132.322,57.34-166.138,44.107c0,0,2.941,30.875,54.399,32.345
		c51.459,1.47,92.626-2.94,102.918,60.28c8.389,51.531,4.411,173.489,69.102,210.246c26.297,14.942,61.585,14.82,94.209,9.412
		C476.416,398.733,429.882,336.655,440.545,270.303z"/>
	<g>
		<linearGradient id="SVGID_5_" gradientUnits="userSpaceOnUse" x1="397.5994" y1="254.0174" x2="321.819" y2="134.4264">
			<stop  offset="0" style="stop-color:#FFFFFF;stop-opacity:0"/>
			<stop  offset="1" style="stop-color:#FFFFFF"/>
		</linearGradient>
		<path fill="url(#SVGID_5_)" d="M415.057,350.12c-3.058,0-6.542-1.506-7.412-4.649c-7.264-26.269-12.671-53.923-16.53-83.436
			c-3.742-28.622-6.633-62.246-19.575-92.444c-19.508-45.516-64.348-42.616-64.774-42.638c-4.534-0.243-8.014-4.116-7.771-8.652
			c0.242-4.534,4.094-8.009,8.651-7.771c2.149,0.116,55.519-2.227,79.009,52.583c13.837,32.289,16.878,67.059,20.766,96.789
			c3.683,28.161,7.956,53.774,15.033,78.419c1.253,4.364,0.259,9.005-3.83,10.98C417.474,349.857,416.255,350.12,415.057,350.12z"/>
	</g>
	<g>
		<path fill="#EDB14A" d="M735.436,482.675c-1.727-15.282-5.279-73.995,35.467-112.597c19.108-18.103,40.642-32.392,61.464-46.211
			c34.011-22.569,66.132-43.886,80.417-77.812c2.125-5.047-0.421-10.574-5.561-12.289l-32.242-10.749
			c-4.319-1.439-9.048,0.525-11.109,4.578c-0.126,0.244-12.838,24.672-44.527,41.732c-38.751,20.868-104.971,62.246-121.898,108.837
			c-5.163,1.362-17.059,2.224-33.253-10.679c10.412-15.83,32.44-56.153,26.894-107.185c-7.152-65.8-46.627-82.951-84.801-99.538
			c-27.968-12.153-54.386-23.632-69.995-54.138c-12.091-23.631-32.664-40.168-61.153-49.152
			C418.393,39.58,337.864,56.335,290.916,81.19c-54.065,28.623-83.528,5.651-84.73,4.678c-6.092-4.935-15.436-0.545-15.103,7.41
			c0.087,2.115,3.317,51.801,104.131,51.801c60.258,0,64.796,30.831,75.756,105.316c8.376,56.926,11.053,136.262,70.093,165.221
			c62.636,30.732,155.604-3.773,179.342-13.549c9.596,7.982,32.996,24.588,64.563,27.551c-0.743,13.05-1.869,37.055-1.351,55.253
			c-141.543,20.049-251.27,153.467-251.27,314.554c0,129.943,70.73,245.391,180.198,294.117
			c36.639,16.309,64.903,56.459,108.092,56.459c43.156-0.001,70.071-39.788,106.696-55.845
			c110.313-48.364,181.591-164.052,181.591-294.732C1008.925,630.001,887.549,491.179,735.436,482.675z M703.885,421.519
			c0.393-5.294-3.891-9.823-9.168-9.823c-38.473,0-65.801-26.614-66.058-26.867c-2.695-2.701-6.787-3.447-10.272-1.882
			c-1.05,0.474-106.126,47.118-169.232,16.168c-22.177-10.879-36.206-29.706-42.891-57.559
			c-8.543-35.602-13.096-66.54-17.113-93.836C378.431,174.843,371.347,126.7,295.215,126.7c-35.772,0-56.657-6.527-68.834-13.878
			c17.705,2.747,42.383,0.89,73.133-15.39c43.654-23.11,118.103-38.826,170.096-22.433c23.622,7.45,40.552,20.906,50.318,39.994
			c18.608,36.369,50.71,50.317,79.034,62.624c36.409,15.821,67.856,29.483,73.853,84.668c6.204,57.077-27.75,100.477-28.082,100.894
			c-2.988,3.724-2.626,9.113,0.829,12.405c35.536,33.841,62.852,18.088,63.994,17.398c1.98-1.186,3.44-3.073,4.089-5.286
			c13.158-44.74,90.9-89.529,114.411-102.189c26.436-14.235,41.426-32.814,48.069-42.737l15.27,5.09
			c-13.843,23.963-39.724,41.137-69.19,60.692c-21.474,14.252-43.681,28.988-63.943,48.184
			c-45.142,42.767-43.474,104.5-41.369,125.578c-5.013,0.071-9.994,0.282-14.943,0.632
			C701.379,458.172,703.855,421.925,703.885,421.519z M819.954,1077.324c-32.538,14.265-61.682,54.3-99.32,54.298
			c-38.729-0.002-67.323-40.052-100.616-54.871c-102.841-45.776-169.291-154.635-169.291-277.327
			c0-164.749,121.082-298.783,269.91-298.783s269.91,134.034,269.91,298.783C990.546,922.807,923.585,1031.89,819.954,1077.324z"/>
	</g>
	<g>
		<path fill="#4A9176" d="M703.885,421.519c0.393-5.294-3.891-9.823-9.169-9.823c-38.473,0-65.801-26.614-66.058-26.867
			c-2.695-2.701-6.787-3.447-10.272-1.881c-1.05,0.474-106.126,47.118-169.232,16.168c-22.177-10.879-36.206-29.706-42.891-57.559
			c-8.542-35.602-13.095-66.54-17.113-93.836c-10.721-72.877-17.803-121.02-93.936-121.02c-35.772,0-56.657-6.527-68.834-13.878
			c17.704,2.747,42.382,0.89,73.132-15.39c43.654-23.11,118.103-38.826,170.096-22.433c23.622,7.45,40.552,20.906,50.318,39.994
			c18.609,36.369,50.711,50.317,79.034,62.624c36.41,15.821,67.857,29.483,73.853,84.668
			c6.204,57.077-27.749,100.477-28.082,100.894c-2.988,3.724-2.626,9.113,0.829,12.405c35.536,33.841,62.852,18.088,63.994,17.399
			c1.98-1.186,3.44-3.073,4.09-5.285c13.158-44.74,90.9-89.529,114.411-102.19c26.436-14.235,41.426-32.814,48.069-42.737
			l15.271,5.09c-13.844,23.963-39.724,41.137-69.19,60.692c-21.475,14.252-43.681,28.988-63.944,48.184
			c-43.917,41.607-43.53,101.141-41.538,123.75c0.009,0.106,0.148,1.667,0.157,1.772c6.163,0,12.544,0.259,18.575,0.407
			c-0.012-0.118-0.239-2.1-0.25-2.221c-1.72-18.092-3.293-73.429,35.697-110.368c19.108-18.103,40.642-32.392,61.464-46.212
			c34.011-22.569,66.133-43.886,80.416-77.812c2.125-5.047-0.421-10.574-5.561-12.289l-32.243-10.749
			c-4.319-1.439-9.048,0.525-11.109,4.578c-0.125,0.244-12.838,24.672-44.527,41.732c-38.751,20.868-104.971,62.246-121.898,108.837
			c-5.163,1.363-17.059,2.224-33.254-10.679c10.412-15.829,32.44-56.153,26.894-107.185c-7.152-65.799-46.627-82.951-84.801-99.538
			c-27.968-12.153-54.386-23.632-69.994-54.138c-12.091-23.631-32.664-40.168-61.153-49.152
			C418.394,39.58,337.864,56.335,290.916,81.19c-54.065,28.623-83.528,5.651-84.73,4.678c-6.092-4.935-15.436-0.545-15.102,7.41
			c0.087,2.115,3.317,51.801,104.13,51.801c60.258,0,64.796,30.831,75.756,105.316c8.376,56.926,11.052,136.262,70.094,165.221
			c62.636,30.732,155.603-3.773,179.342-13.549c9.596,7.982,32.997,24.588,64.563,27.551c-0.725,12.732-1.811,35.879-1.383,53.9
			c0.004,0.173,0.002,1.21,0.006,1.382c6.216-0.691,12.112-1.381,18.378-1.973c-0.003-0.135-0.039-1.048-0.042-1.184
			C701.459,457.014,703.856,421.918,703.885,421.519z"/>
	</g>
	<g>
		<radialGradient id="SVGID_6_" cx="199.8505" cy="-11.5715" r="703.305" gradientUnits="userSpaceOnUse">
			<stop  offset="0" style="stop-color:#69B38E"/>
			<stop  offset="1" style="stop-color:#69B38E;stop-opacity:0"/>
		</radialGradient>
		<path fill="url(#SVGID_6_)" d="M703.885,421.519c0.393-5.294-3.891-9.823-9.169-9.823c-38.473,0-65.801-26.614-66.058-26.867
			c-2.695-2.701-6.787-3.447-10.272-1.881c-1.05,0.474-106.126,47.118-169.232,16.168c-22.177-10.879-36.206-29.706-42.891-57.559
			c-8.542-35.602-13.095-66.54-17.113-93.836c-10.721-72.877-17.803-121.02-93.936-121.02c-35.772,0-56.657-6.527-68.834-13.878
			c17.704,2.747,42.382,0.89,73.132-15.39c43.654-23.11,118.103-38.826,170.096-22.433c23.622,7.45,40.552,20.906,50.318,39.994
			c18.609,36.369,50.711,50.317,79.034,62.624c36.41,15.821,67.857,29.483,73.853,84.668
			c6.204,57.077-27.749,100.477-28.082,100.894c-2.988,3.724-2.626,9.113,0.829,12.405c35.536,33.841,62.852,18.088,63.994,17.399
			c1.98-1.186,3.44-3.073,4.09-5.285c13.158-44.74,90.9-89.529,114.411-102.19c26.436-14.235,41.426-32.814,48.069-42.737
			l15.271,5.09c-13.844,23.963-39.724,41.137-69.19,60.692c-21.475,14.252-43.681,28.988-63.944,48.184
			c-43.917,41.607-43.53,101.141-41.538,123.75c0.009,0.106,0.148,1.667,0.157,1.772c6.163,0,12.544,0.259,18.575,0.407
			c-0.012-0.118-0.239-2.1-0.25-2.221c-1.72-18.092-3.293-73.429,35.697-110.368c19.108-18.103,40.642-32.392,61.464-46.212
			c34.011-22.569,66.133-43.886,80.416-77.812c2.125-5.047-0.421-10.574-5.561-12.289l-32.243-10.749
			c-4.319-1.439-9.048,0.525-11.109,4.578c-0.125,0.244-12.838,24.672-44.527,41.732c-38.751,20.868-104.971,62.246-121.898,108.837
			c-5.163,1.363-17.059,2.224-33.254-10.679c10.412-15.829,32.44-56.153,26.894-107.185c-7.152-65.799-46.627-82.951-84.801-99.538
			c-27.968-12.153-54.386-23.632-69.994-54.138c-12.091-23.631-32.664-40.168-61.153-49.152
			C418.394,39.58,337.864,56.335,290.916,81.19c-54.065,28.623-83.528,5.651-84.73,4.678c-6.092-4.935-15.436-0.545-15.102,7.41
			c0.087,2.115,3.317,51.801,104.13,51.801c60.258,0,64.796,30.831,75.756,105.316c8.376,56.926,11.052,136.262,70.094,165.221
			c62.636,30.732,155.603-3.773,179.342-13.549c9.596,7.982,32.997,24.588,64.563,27.551c-0.725,12.732-1.811,35.879-1.383,53.9
			c0.004,0.173,0.002,1.21,0.006,1.382c6.216-0.691,12.112-1.381,18.378-1.973c-0.003-0.135-0.039-1.048-0.042-1.184
			C701.459,457.014,703.856,421.918,703.885,421.519z"/>
	</g>
	<path fill="#A1CAFF" d="M616.015,345.02c-5.405-4.292-10.479-8.481-15.373-12.631c28.188-40.161,2.355-116.439,1.184-119.83
		c-2.595-7.51-14.169-3.496-11.583,3.995c0.259,0.747,24.541,72.325,1.072,107.731c-11.366-10.14-21.393-20.11-30.466-30.413
		c1.131-3.694,7.189-25.631,1.508-55.469c-5.481-28.777-0.214-48.314-0.123-48.643c2.116-7.626-9.595-11.006-11.785-3.352
		c-0.257,0.897-6.21,22.349-0.129,54.286c3.394,17.818,2.119,32.602,0.645,41.329c-16.559-20.053-36.465-57.181-43.021-70.695
		c7.393-7.063,17.481-24.821,5.027-44.194c-11.926-18.555-10.815-43.048-10.798-43.393c0.388-7.934-11.793-8.582-12.234-0.681
		c-0.063,1.162-1.415,28.698,12.725,50.7c7.248,11.275,2.973,20.659-0.489,25.509c-2.111-4.477-4.13-8.813-6.116-13.077
		c-20.785-44.641-33.33-71.585-71.512-84.755c-7.392-2.55-11.563,8.974-4.001,11.58c31.286,10.788,42.935,32.445,60.907,70.842
		c-5.926-0.737-16.391-4.392-29.334-18.951c-25.044-28.175-57.555-28.521-58.975-28.521c-7.715-0.003-7.954,12.252-0.003,12.252
		c0.281,0,28.372,0.28,49.819,24.409c10.696,12.033,26.989,24.812,44.172,22.993c3.346,7.177,6.839,14.612,10.77,22.671
		c5.604,11.488,11.241,22.07,17.076,32.024c-10.547-3.356-19.146-2.972-27.545-2.58c-9.509,0.449-19.347,0.908-33.433-4.088
		c-29.782-10.568-31.162-28.699-31.213-29.694c-0.408-7.871-12.396-7.621-12.249,0.296c0.021,1.108,0.954,27.316,39.365,40.944
		c16.35,5.801,27.911,5.256,38.108,4.78c12.159-0.573,21.77-1.021,37.899,8.987c0.354,0.22,0.733,0.35,1.109,0.49
		c11.028,16.343,23.099,31.121,37.264,45.556c-31.307,27.935-103.587,5.349-104.576,5.033c-7.496-2.388-11.329,9.235-3.747,11.666
		c1.968,0.631,30.28,9.529,60.533,9.529c20.487,0,41.854-4.105,56.537-17.596c10.544,10.067,22.205,20.106,35.363,30.556
		C614.399,359.386,622.383,350.083,616.015,345.02z"/>
	<g>
		<linearGradient id="SVGID_7_" gradientUnits="userSpaceOnUse" x1="688.6763" y1="684.69" x2="501.5934" y2="492.8708">
			<stop  offset="0" style="stop-color:#FFFFFF;stop-opacity:0"/>
			<stop  offset="1" style="stop-color:#FFFFFF"/>
		</linearGradient>
		<path fill="url(#SVGID_7_)" d="M601.875,564.171c7.138-3.251,2.208-14.483-5.067-11.154
			c-25.937,11.787-37.743,34.938-38.234,35.918c-3.451,6.902,7.59,12.321,10.96,5.479
			C569.633,594.213,579.847,574.185,601.875,564.171z"/>
		<linearGradient id="SVGID_8_" gradientUnits="userSpaceOnUse" x1="719.1131" y1="655.0047" x2="532.0302" y2="463.1855">
			<stop  offset="0" style="stop-color:#FFFFFF;stop-opacity:0"/>
			<stop  offset="1" style="stop-color:#FFFFFF"/>
		</linearGradient>
		<path fill="url(#SVGID_8_)" d="M653.414,549.427c-27.568,6.996-43.281,27.634-43.986,28.572
			c-4.683,6.231,5.076,13.664,9.814,7.339c0.135-0.181,13.728-18.083,37.183-24.035C664.005,559.38,661.194,547.446,653.414,549.427
			z"/>
		<linearGradient id="SVGID_9_" gradientUnits="userSpaceOnUse" x1="597.2774" y1="773.8321" x2="410.1945" y2="582.0129">
			<stop  offset="0" style="stop-color:#FFFFFF;stop-opacity:0"/>
			<stop  offset="1" style="stop-color:#FFFFFF"/>
		</linearGradient>
		<path fill="url(#SVGID_9_)" d="M534.193,613.042c-19.783,13.232-29.066,34.51-34.875,56.651
			c-1.472,5.62-2.997,11.434-4.316,13.414c-5.124,7.686-18.552,43.88-20.84,64.472c-0.848,7.635,11.306,9.19,12.174,1.355
			c2.064-18.552,14.953-53.172,18.86-59.03c2.459-3.687,4.011-9.608,5.976-17.104c4.953-18.891,12.754-38.03,29.823-49.568
			C547.52,618.821,540.826,608.605,534.193,613.042z"/>
	</g>
	<g>
		<path fill="#966237" d="M745.141,837.912c-4.594-0.033-9.189,2.884-9.189,8.848c-0.002,19.404-30.626,19.873-30.63,0.005
			c-0.003-11.775-18.377-11.948-18.378-0.004c-0.003,42.606,67.383,43.6,67.386,0.003
			C754.33,840.928,749.735,837.945,745.141,837.912z"/>
		<circle fill="#966237" cx="598.115" cy="822.258" r="28.67"/>
		<circle fill="#966237" cx="843.157" cy="822.258" r="28.67"/>
	</g>
	<g>
		<path fill="#FFE7BD" d="M780.33,1062.729c-2.77-1.306-6.325-0.844-7.952,2.818c-7.398,16.643-19.725,20.663-20.388,20.867
			c-7.443,2.294-4.137,13.936,3.41,11.768c0.742-0.211,18.3-5.45,28.171-27.655C785.089,1067.114,783.103,1064.036,780.33,1062.729z
			"/>
		<path fill="#FFE7BD" d="M929.457,921.409c-2.925-0.904-6.356,0.017-7.418,3.841c-0.105,0.378-10.756,38.125-26.804,52.166
			c-14.506,12.694-27.721,26.806-41.989,39.773c-22.016,20.017-38.134,22.65-38.579,22.719c-7.213,1.12-6.604,12.199,0.791,12.199
			c0.254,0,0.512-0.015,0.769-0.048c0.799-0.099,19.859-2.71,45.263-25.804c14.212-12.921,27.363-26.973,41.817-39.62
			c18.788-16.441,30.047-56.35,30.533-58.101C934.808,925.049,932.385,922.314,929.457,921.409z"/>
		<path fill="#FFE7BD" d="M810.577,1010.263c-2.936-0.875-6.44,0.152-7.571,3.948c-3.982,13.325-23.906,18.248-24.247,18.33
			c-7.431,1.781-4.3,13.578,2.791,11.93c1.104-0.257,27.153-6.541,33.192-26.749C815.88,1013.913,813.512,1011.138,810.577,1010.263
			z"/>
	</g>
	<g>
		<linearGradient id="SVGID_10_" gradientUnits="userSpaceOnUse" x1="842.7979" y1="846.7653" x2="862.4134" y2="798.481">
			<stop  offset="0" style="stop-color:#FFFFFF;stop-opacity:0"/>
			<stop  offset="1" style="stop-color:#FFE6BD"/>
		</linearGradient>
		<circle fill="url(#SVGID_10_)" cx="855.867" cy="814.596" r="9.431"/>
		<linearGradient id="SVGID_11_" gradientUnits="userSpaceOnUse" x1="830.4874" y1="841.7641" x2="850.1029" y2="793.4799">
			<stop  offset="0" style="stop-color:#FFFFFF;stop-opacity:0"/>
			<stop  offset="1" style="stop-color:#FFE6BD"/>
		</linearGradient>
		<circle fill="url(#SVGID_11_)" cx="833.862" cy="833.457" r="5.03"/>
	</g>
	<g>
		<linearGradient id="SVGID_12_" gradientUnits="userSpaceOnUse" x1="597.7615" y1="846.7653" x2="617.377" y2="798.481">
			<stop  offset="0" style="stop-color:#FFFFFF;stop-opacity:0"/>
			<stop  offset="1" style="stop-color:#FFE6BD"/>
		</linearGradient>
		<circle fill="url(#SVGID_12_)" cx="610.83" cy="814.596" r="9.431"/>
		<linearGradient id="SVGID_13_" gradientUnits="userSpaceOnUse" x1="585.4509" y1="841.7641" x2="605.0664" y2="793.4799">
			<stop  offset="0" style="stop-color:#FFFFFF;stop-opacity:0"/>
			<stop  offset="1" style="stop-color:#FFE6BD"/>
		</linearGradient>
		<circle fill="url(#SVGID_13_)" cx="588.826" cy="833.457" r="5.03"/>
	</g>
	<g>
		<radialGradient id="SVGID_14_" cx="680.5825" cy="570.201" r="60.3759" gradientUnits="userSpaceOnUse">
			<stop  offset="0" style="stop-color:#FFFA9E"/>
			<stop  offset="1" style="stop-color:#FFFA9E;stop-opacity:0"/>
		</radialGradient>
		<path fill="url(#SVGID_14_)" d="M703.311,580.767c-4.514-0.795-9.002-0.225-12.715,2.643c-3.604,2.784-5.846,6.936-5.834,11.561
			c0.003,1.085,0.127,2.154,0.356,3.197c-0.245,1.383-0.195,2.805,0.242,4.154c1.281,3.958,4.503,6.615,8.33,7.108
			c2.157,1.181,4.56,1.902,7.066,1.971c5.085,0.14,9.448-2.729,11.921-6.653c2.403-1.855,3.823-4.865,3.992-7.925
			C717.091,589.166,710.705,582.069,703.311,580.767z"/>
		<radialGradient id="SVGID_15_" cx="594.5401" cy="649.9283" r="41.8966" gradientUnits="userSpaceOnUse">
			<stop  offset="0" style="stop-color:#FFFA9E"/>
			<stop  offset="1" style="stop-color:#FFFA9E;stop-opacity:0"/>
		</radialGradient>
		<path fill="url(#SVGID_15_)" d="M612.306,653.817c-3.322,0.046-6.112,1.659-8.349,3.916c-2.065,1.35-3.707,3.413-4.526,6.153
			c-0.153,0.511-0.257,1.022-0.336,1.533c-0.846,2.292-1.287,4.657-1.552,7.21c-0.234,2.264,1.251,5.472,2.89,6.977
			c1.932,1.773,4.302,2.887,6.977,2.89c4.939,0.006,9.524-2.282,12.575-6.074c0.487-0.35,0.948-0.753,1.366-1.226
			c3.696-4.183,4.58-9.647,1.956-14.658C621.214,656.543,616.865,653.754,612.306,653.817z"/>
		<radialGradient id="SVGID_16_" cx="610.3277" cy="586.778" r="87.1898" gradientUnits="userSpaceOnUse">
			<stop  offset="0" style="stop-color:#FFFA9E"/>
			<stop  offset="1" style="stop-color:#FFFA9E;stop-opacity:0"/>
		</radialGradient>
		<path fill="url(#SVGID_16_)" d="M637.759,621.37c2.77-1.202,5.075-3.593,5.729-6.466c1.245-5.467-1.653-10.363-6.891-12.138
			c-10.05-3.404-21.245,5.354-20.972,15.767c0.174,6.656,6.145,10.901,12.491,9.515C632.055,627.187,635.47,624.662,637.759,621.37z
			 M634.82,620.31c0.017-0.03,0.031-0.053,0.047-0.083c-0.005,0.014-0.009,0.03-0.014,0.043
			C634.842,620.284,634.831,620.297,634.82,620.31z"/>
		<radialGradient id="SVGID_17_" cx="644.271" cy="624.6682" r="46.3319" gradientUnits="userSpaceOnUse">
			<stop  offset="0" style="stop-color:#FFFA9E"/>
			<stop  offset="1" style="stop-color:#FFFA9E;stop-opacity:0"/>
		</radialGradient>
		<path fill="url(#SVGID_17_)" d="M655.231,658.177c0.454,0.196,0.923,0.365,1.415,0.477c5.276,1.201,10.597-1.586,12.138-6.892
			c0.671-2.308,1.34-4.616,2.01-6.924c0.85-2.927,0.062-6.404-1.877-8.865c-0.048-0.428-0.097-0.857-0.16-1.292
			c-0.733-5.128-7.513-8.388-12.138-6.892c-5.229,1.692-7.343,6.002-6.98,11.023c-0.011,0.032-0.026,0.09-0.047,0.169
			c-0.141-1.001-0.069-0.481-0.034,0.135c-0.073,0.068-0.263,0.521-0.434,0.92c-0.432,0.401-0.864,0.801-1.296,1.201
			c-3.609,3.345-3.656,9.223-0.772,12.956C648.832,656.491,652.094,658.157,655.231,658.177z M649.728,639.927
			c-0.008-0.054-0.013-0.091-0.02-0.142c0.003-0.003,0.005-0.004,0.008-0.006C649.723,639.829,649.721,639.877,649.728,639.927z
			 M649.495,640.047c0.006-0.042,0.011-0.072,0.017-0.111c0.014-0.011,0.027-0.021,0.041-0.032
			C649.541,639.979,649.523,640.034,649.495,640.047z M649.558,639.635c0.005-0.036,0.011-0.076,0.016-0.11
			c0,0.033,0,0.064-0.001,0.095C649.568,639.626,649.563,639.63,649.558,639.635z M649.651,638.951
			c0.015,0.186,0.022,0.369,0.044,0.557c-0.008,0.007-0.016,0.015-0.024,0.022c-0.018-0.129-0.034-0.243-0.049-0.346
			C649.635,639.088,649.644,639.014,649.651,638.951z"/>
		<radialGradient id="SVGID_18_" cx="851.8777" cy="710.7104" r="33.5091" gradientUnits="userSpaceOnUse">
			<stop  offset="0" style="stop-color:#FFF985"/>
			<stop  offset="1" style="stop-color:#FFF985;stop-opacity:0"/>
		</radialGradient>
		<path fill="url(#SVGID_18_)" d="M869.906,715.574c-0.894-0.962-1.952-1.642-3.175-2.04c-1.176-0.618-2.444-0.901-3.802-0.85
			c-0.874,0.117-1.749,0.235-2.623,0.353c-1.672,0.469-3.123,1.315-4.355,2.537c-0.514,0.666-1.029,1.331-1.543,1.997
			c-0.893,1.539-1.342,3.199-1.347,4.98c0,0.789,0,1.579,0,2.368c-0.051,1.359,0.232,2.626,0.85,3.802
			c0.398,1.223,1.078,2.282,2.04,3.175c0.894,0.962,1.953,1.642,3.176,2.04c1.176,0.618,2.443,0.901,3.801,0.85
			c0.874-0.117,1.749-0.235,2.623-0.353c1.672-0.469,3.123-1.315,4.354-2.537c0.515-0.666,1.029-1.331,1.543-1.997
			c0.892-1.539,1.341-3.199,1.347-4.98c0-0.789,0-1.579,0-2.368c0.051-1.359-0.232-2.626-0.85-3.802
			C871.548,717.526,870.869,716.468,869.906,715.574z"/>
		<radialGradient id="SVGID_19_" cx="892.9255" cy="721.7618" r="34.4173" gradientUnits="userSpaceOnUse">
			<stop  offset="0" style="stop-color:#FFF985"/>
			<stop  offset="1" style="stop-color:#FFF985;stop-opacity:0"/>
		</radialGradient>
		<path fill="url(#SVGID_19_)" d="M917.504,735.551c-2.378-1.563-4.757-3.125-7.135-4.688c-4.323-2.84-11.101-1.003-13.501,3.54
			c-2.607,4.936-1.074,10.469,3.54,13.5c2.378,1.563,4.757,3.125,7.136,4.688c4.323,2.84,11.1,1.003,13.5-3.54
			C923.652,744.116,922.118,738.582,917.504,735.551z"/>
		<radialGradient id="SVGID_20_" cx="892.9255" cy="690.1866" r="29.0466" gradientUnits="userSpaceOnUse">
			<stop  offset="0" style="stop-color:#FFF985"/>
			<stop  offset="1" style="stop-color:#FFF985;stop-opacity:0"/>
		</radialGradient>
		<path fill="url(#SVGID_20_)" d="M898.1,712.288c3.29,2.168,6.58,4.335,9.869,6.503c4.32,2.846,11.102,0.999,13.501-3.54
			c2.611-4.941,1.07-10.462-3.54-13.5c-3.289-2.168-6.579-4.335-9.869-6.503c-4.319-2.846-11.102-0.999-13.5,3.54
			C891.95,703.729,893.491,709.25,898.1,712.288z"/>
		<radialGradient id="SVGID_21_" cx="625.3259" cy="1001.202" r="71.6772" gradientUnits="userSpaceOnUse">
			<stop  offset="0" style="stop-color:#FFF985"/>
			<stop  offset="1" style="stop-color:#FFF985;stop-opacity:0"/>
		</radialGradient>
		<path fill="url(#SVGID_21_)" d="M652.553,1045.309c-3.084-1.71-6.169-3.419-9.255-5.129c-4.514-2.502-10.972-1.245-13.5,3.54
			c-2.452,4.64-1.282,10.828,3.54,13.5c3.085,1.71,6.17,3.419,9.255,5.129c4.514,2.502,10.972,1.245,13.5-3.54
			C658.545,1054.17,657.375,1047.981,652.553,1045.309z"/>
		<radialGradient id="SVGID_22_" cx="656.9011" cy="988.572" r="39.5399" gradientUnits="userSpaceOnUse">
			<stop  offset="0" style="stop-color:#FFF985"/>
			<stop  offset="1" style="stop-color:#FFF985;stop-opacity:0"/>
		</radialGradient>
		<path fill="url(#SVGID_22_)" d="M680.425,1021.11c1.561-4.324,0.775-9.265-1.287-13.269c-2.117-4.11-5.829-6.837-10.123-8.318
			c-4.885-1.685-11.007,1.922-12.138,6.891c-1.014,4.453,0.71,8.48,4.188,10.805c-0.721,4.586,2.752,9.763,7.223,10.781
			C673.84,1029.267,678.545,1026.316,680.425,1021.11z M662.475,1018.012C662.475,1018.013,662.475,1018.013,662.475,1018.012
			C662.646,1018.209,662.729,1018.324,662.475,1018.012z"/>
	</g>
</g>
</svg>
